<?xml version="1.0" encoding="UTF-8" standalone="no"?>
<!DOCTYPE svg PUBLIC "-//W3C//DTD SVG 1.1//EN" "http://www.w3.org/Graphics/SVG/1.1/DTD/svg11.dtd">
<svg width="100%" height="100%" viewBox="0 0 4653 1540" version="1.1" xmlns="http://www.w3.org/2000/svg" xmlns:xlink="http://www.w3.org/1999/xlink" xml:space="preserve" xmlns:serif="http://www.serif.com/" style="fill-rule:evenodd;clip-rule:evenodd;stroke-linejoin:round;stroke-miterlimit:2;">
    <g id="Artboard1" transform="matrix(1,0,0,0.9763,-1.24345e-14,0)">
        <rect x="0" y="0" width="4652.16" height="1577.14" style="fill:none;"/>
        <clipPath id="_clip1">
            <rect x="0" y="0" width="4652.16" height="1577.14"/>
        </clipPath>
        <g clip-path="url(#_clip1)">
            <g transform="matrix(1.85345,-0.137092,0,0.509766,-8.1345,532.875)">
                <path d="M95.825,0L186.08,1049.42L189.7,1049.42L280.253,0L367.894,0L238.846,1381.79L136.934,1381.79L7.682,0L95.825,0Z" style="fill:rgb(97,97,97);fill-rule:nonzero;"/>
                <path d="M531.167,1400.33C498.034,1400.33 468.209,1372.51 441.691,1316.87C415.174,1261.23 394.226,1180.58 378.849,1074.92C363.472,969.262 355.784,841.562 355.784,691.82C355.784,541.093 363.472,412.746 378.849,306.779C394.226,200.812 415.174,120.1 441.691,64.641C468.209,9.182 498.034,-18.547 531.167,-18.547C564.366,-18.547 594.165,9.182 620.565,64.641C646.965,120.1 667.861,200.812 683.255,306.779C698.649,412.746 706.346,541.093 706.346,691.82C706.346,841.929 698.649,969.812 683.255,1075.47C667.861,1181.13 646.965,1261.69 620.565,1317.14C594.165,1372.6 564.366,1400.33 531.167,1400.33ZM531.167,1142.16C550.363,1142.16 567.071,1124.88 581.293,1090.32C595.514,1055.75 606.545,1004.96 614.385,937.943C622.225,870.926 626.146,788.885 626.146,691.82C626.146,594.137 622.225,511.632 614.385,444.306C606.545,376.979 595.514,326.034 581.293,291.47C567.071,256.906 550.363,239.624 531.167,239.624C512.071,239.624 495.395,256.906 481.14,291.47C466.885,326.034 455.795,376.979 447.871,444.306C439.947,511.632 435.985,594.137 435.985,691.82C435.985,788.885 439.947,870.926 447.871,937.943C455.795,1004.96 466.885,1055.75 481.14,1090.32C495.395,1124.88 512.071,1142.16 531.167,1142.16Z" style="fill:rgb(97,97,97);fill-rule:nonzero;"/>
                <path d="M704.58,240.74L704.58,0L1012.03,0L1012.03,240.74L897.449,240.74L897.449,1381.79L819.357,1381.79L819.357,240.74L704.58,240.74Z" style="fill:rgb(97,97,97);fill-rule:nonzero;"/>
                <path d="M1033.34,1381.79L1033.34,0L1285.71,0L1285.71,240.74L1112.34,240.74L1112.34,565.697L1272.44,565.697L1272.44,801.989L1112.34,801.989L1112.34,1141.05L1286.11,1141.05L1286.11,1381.79L1033.34,1381.79Z" style="fill:rgb(97,97,97);fill-rule:nonzero;"/>
                <path d="M1314.76,1381.79L1314.76,1208.93L1501.71,240.74L1314.26,240.74L1314.26,0L1600.9,0L1600.9,173.607L1413.96,1141.05L1601.41,1141.05L1601.41,1381.79L1314.76,1381.79Z" style="fill:rgb(97,97,97);fill-rule:nonzero;"/>
                <path d="M1882.95,1400.33C1849.82,1400.33 1820,1372.51 1793.48,1316.87C1766.96,1261.23 1746.01,1180.58 1730.64,1074.92C1715.26,969.262 1707.57,841.562 1707.57,691.82C1707.57,541.093 1715.26,412.746 1730.64,306.779C1746.01,200.812 1766.96,120.1 1793.48,64.641C1820,9.182 1849.82,-18.547 1882.95,-18.547C1916.15,-18.547 1945.95,9.182 1972.35,64.641C1998.75,120.1 2019.65,200.812 2035.04,306.779C2050.44,412.746 2058.13,541.093 2058.13,691.82C2058.13,841.929 2050.44,969.812 2035.04,1075.47C2019.65,1181.13 1998.75,1261.69 1972.35,1317.14C1945.95,1372.6 1916.15,1400.33 1882.95,1400.33ZM1882.95,1142.16C1902.15,1142.16 1918.86,1124.88 1933.08,1090.32C1947.3,1055.75 1958.33,1004.96 1966.17,937.943C1974.01,870.926 1977.93,788.885 1977.93,691.82C1977.93,594.137 1974.01,511.632 1966.17,444.306C1958.33,376.979 1947.3,326.034 1933.08,291.47C1918.86,256.906 1902.15,239.624 1882.95,239.624C1863.86,239.624 1847.18,256.906 1832.93,291.47C1818.67,326.034 1807.58,376.979 1799.66,444.306C1791.73,511.632 1787.77,594.137 1787.77,691.82C1787.77,788.885 1791.73,870.926 1799.66,937.943C1807.58,1004.96 1818.67,1055.75 1832.93,1090.32C1847.18,1124.88 1863.86,1142.16 1882.95,1142.16Z" style="fill:rgb(97,97,97);fill-rule:nonzero;"/>
                <path d="M2318.25,0L2397.25,0L2397.25,896.581C2397.25,997.481 2390.78,1085.8 2377.85,1161.54C2364.92,1237.27 2346.81,1296.19 2323.53,1338.29C2300.25,1380.4 2273.09,1401.45 2242.07,1401.45C2211.05,1401.45 2183.9,1380.4 2160.63,1338.29C2137.37,1296.19 2119.28,1237.27 2106.36,1161.54C2093.45,1085.8 2086.99,997.481 2086.99,896.581L2086.99,0L2165.98,0L2165.98,872.47C2165.98,925.397 2169.15,972.295 2175.48,1013.16C2181.81,1054.03 2190.68,1086.12 2202.09,1109.42C2213.5,1132.73 2226.83,1144.38 2242.07,1144.38C2257.41,1144.38 2270.78,1132.73 2282.17,1109.42C2293.56,1086.12 2302.42,1054.03 2308.75,1013.16C2315.09,972.295 2318.25,925.397 2318.25,872.47L2318.25,0Z" style="fill:rgb(97,97,97);fill-rule:nonzero;"/>
                <rect x="2432.84" y="0" width="78.995" height="1381.79" style="fill:rgb(97,97,97);fill-rule:nonzero;"/>
            </g>
            <g transform="matrix(0.807133,-0.0597001,0,0.826727,-8.87213,406.307)">
                <path d="M101.711,3.52C83.583,3.52 67.836,0.746 54.471,-4.803C41.105,-10.351 30.669,-18.453 23.161,-29.108C15.654,-39.763 11.597,-52.708 10.992,-67.944L52.53,-67.944C53.197,-59.956 55.718,-53.296 60.093,-47.963C64.468,-42.63 70.227,-38.635 77.37,-35.98C84.513,-33.324 92.501,-31.996 101.334,-31.996C110.501,-31.996 118.588,-33.375 125.595,-36.134C132.601,-38.893 138.078,-42.743 142.025,-47.684C145.971,-52.625 147.945,-58.39 147.945,-64.979C147.945,-70.95 146.18,-75.881 142.651,-79.773C139.122,-83.665 134.22,-86.939 127.944,-89.594C121.669,-92.25 114.323,-94.607 105.908,-96.666L79.406,-103.461C60.214,-108.278 45.069,-115.665 33.968,-125.62C22.868,-135.575 17.318,-148.819 17.318,-165.351C17.318,-178.919 21.041,-190.784 28.487,-200.945C35.932,-211.106 46.103,-219.018 58.998,-224.68C71.894,-230.342 86.486,-233.173 102.775,-233.173C119.356,-233.173 133.901,-230.336 146.41,-224.664C158.919,-218.991 168.734,-211.168 175.856,-201.192C182.977,-191.217 186.684,-179.764 186.976,-166.833L146.129,-166.833C145.106,-176.634 140.684,-184.252 132.862,-189.688C125.04,-195.124 114.823,-197.842 102.21,-197.842C93.481,-197.842 85.963,-196.555 79.657,-193.982C73.35,-191.408 68.516,-187.856 65.153,-183.327C61.79,-178.797 60.109,-173.629 60.109,-167.822C60.109,-161.502 62.072,-156.299 65.999,-152.211C69.925,-148.124 74.932,-144.845 81.019,-142.374C87.106,-139.904 93.334,-137.866 99.704,-136.26L121.445,-130.761C130.216,-128.703 138.69,-125.954 146.865,-122.516C155.041,-119.078 162.392,-114.754 168.918,-109.545C175.444,-104.335 180.607,-98.04 184.408,-90.66C188.209,-83.279 190.109,-74.596 190.109,-64.61C190.109,-51.143 186.621,-39.288 179.647,-29.045C172.672,-18.802 162.606,-10.814 149.45,-5.08C136.293,0.653 120.38,3.52 101.711,3.52Z" style="fill:rgb(97,97,97);fill-rule:nonzero;"/>
                <path d="M313.929,3.088C293.547,3.088 275.253,-1.596 259.048,-10.964C242.843,-20.332 230.057,-33.823 220.69,-51.437C211.324,-69.051 206.641,-90.202 206.641,-114.888C206.641,-139.719 211.324,-160.967 220.69,-178.633C230.057,-196.298 242.843,-209.805 259.048,-219.152C275.253,-228.499 293.547,-233.173 313.929,-233.173C334.376,-233.173 352.66,-228.499 368.782,-219.152C384.904,-209.805 397.642,-196.298 406.998,-178.633C416.354,-160.967 421.032,-139.719 421.032,-114.888C421.032,-90.16 416.354,-68.989 406.998,-51.374C397.642,-33.76 384.904,-20.28 368.782,-10.932C352.66,-1.585 334.376,3.088 313.929,3.088ZM313.929,-34.221C326.606,-34.221 337.806,-37.314 347.527,-43.5C357.248,-49.687 364.86,-58.782 370.363,-70.785C375.865,-82.789 378.616,-97.49 378.616,-114.888C378.616,-132.389 375.865,-147.166 370.363,-159.222C364.86,-171.277 357.248,-180.398 347.527,-186.584C337.806,-192.77 326.606,-195.864 313.929,-195.864C301.295,-195.864 290.101,-192.77 280.349,-186.584C270.597,-180.398 262.943,-171.277 257.389,-159.222C251.834,-147.166 249.057,-132.389 249.057,-114.888C249.057,-97.49 251.834,-82.789 257.389,-70.785C262.943,-58.782 270.597,-49.687 280.349,-43.5C290.101,-37.314 301.295,-34.221 313.929,-34.221Z" style="fill:rgb(97,97,97);fill-rule:nonzero;"/>
                <path d="M417.229,-230.084L464.907,-230.084L521.98,-128.168L524.423,-128.168L581.435,-230.084L629.176,-230.084L544.221,-85.794L544.221,0L502.121,0L502.121,-85.794L417.229,-230.084Z" style="fill:rgb(97,97,97);fill-rule:nonzero;"/>
                <path d="M644.141,0L644.141,-230.084L796.008,-230.084L796.008,-195.123L686.369,-195.123L686.369,-133.418L787.988,-133.418L787.988,-98.951L686.369,-98.951L686.369,-34.961L796.695,-34.961L796.695,0L644.141,0Z" style="fill:rgb(97,97,97);fill-rule:nonzero;"/>
                <path d="M819.556,0L819.556,-25.882L939.216,-195.123L818.929,-195.123L818.929,-230.084L991.72,-230.084L991.72,-204.019L872.058,-34.961L992.346,-34.961L992.346,0L819.556,0Z" style="fill:rgb(97,97,97);fill-rule:nonzero;"/>
                <path d="M1269.75,-230.084L1269.75,0L1231.97,0L1122.15,-156.704L1120.02,-156.704L1120.02,0L1077.79,0L1077.79,-230.084L1115.7,-230.084L1225.46,-73.32L1227.53,-73.32L1227.53,-230.084L1269.75,-230.084Z" style="fill:rgb(97,97,97);fill-rule:nonzero;"/>
                <path d="M1447.67,-230.084L1489.9,-230.084L1489.9,-79.803C1489.9,-63.353 1485.97,-48.874 1478.11,-36.366C1470.24,-23.858 1459.21,-14.083 1445.01,-7.042C1430.81,-0 1414.22,3.52 1395.23,3.52C1376.25,3.52 1359.65,-0 1345.44,-7.042C1331.23,-14.083 1320.19,-23.858 1312.32,-36.366C1304.44,-48.874 1300.51,-63.353 1300.51,-79.803L1300.51,-230.084L1342.74,-230.084L1342.74,-83.2C1342.74,-73.586 1344.89,-65.053 1349.19,-57.599C1353.49,-50.146 1359.58,-44.294 1367.45,-40.042C1375.32,-35.789 1384.58,-33.663 1395.23,-33.663C1405.93,-33.663 1415.19,-35.789 1423.02,-40.042C1430.85,-44.294 1436.92,-50.146 1441.22,-57.599C1445.52,-65.053 1447.67,-73.586 1447.67,-83.2L1447.67,-230.084Z" style="fill:rgb(97,97,97);fill-rule:nonzero;"/>
                <path d="M1520.65,-230.084L1572.53,-230.084L1641.76,-63.437L1644.45,-63.437L1713.81,-230.084L1766.21,-230.084L1766.21,0L1724.77,0L1724.77,-158.125L1722.83,-158.125L1657.95,-0.741L1627.69,-0.741L1563.51,-158.371L1561.44,-158.371L1561.44,0L1520.65,0L1520.65,-230.084Z" style="fill:rgb(97,97,97);fill-rule:nonzero;"/>
                <path d="M1796.97,0L1796.97,-230.084L1948.89,-230.084L1948.89,-195.186L1839.25,-195.186L1839.25,-133.418L1940.75,-133.418L1940.75,-98.983L1839.25,-98.983L1839.25,-34.899L1949.52,-34.899L1949.52,0L1796.97,0ZM1856.8,-251.548L1878.57,-297.102L1918.35,-297.102L1886.71,-251.548L1856.8,-251.548Z" style="fill:rgb(97,97,97);fill-rule:nonzero;"/>
                <path d="M1976.7,0L1976.7,-230.084L2064.29,-230.084C2082.18,-230.084 2097.23,-227.001 2109.41,-220.835C2121.6,-214.668 2130.83,-206.052 2137.12,-194.985C2143.41,-183.919 2146.55,-171.055 2146.55,-156.395C2146.55,-141.716 2143.39,-128.961 2137.07,-118.13C2130.76,-107.3 2121.43,-98.956 2109.1,-93.099C2096.77,-87.241 2081.6,-84.313 2063.6,-84.313L2001.39,-84.313L2001.39,-118.717L2057.9,-118.717C2068.42,-118.717 2077.04,-120.169 2083.74,-123.072C2090.44,-125.975 2095.39,-130.222 2098.59,-135.811C2101.78,-141.401 2103.38,-148.262 2103.38,-156.395C2103.38,-164.589 2101.77,-171.579 2098.54,-177.365C2095.32,-183.151 2090.35,-187.577 2083.65,-190.645C2076.94,-193.712 2068.3,-195.246 2057.71,-195.246L2018.93,-195.246L2018.93,0L1976.7,0ZM2107.83,0L2051.19,-104.324L2097.3,-104.324L2155.13,0L2107.83,0Z" style="fill:rgb(97,97,97);fill-rule:nonzero;"/>
                <path d="M2271.87,3.088C2251.49,3.088 2233.2,-1.596 2216.99,-10.964C2200.78,-20.332 2188,-33.823 2178.63,-51.437C2169.27,-69.051 2164.58,-90.202 2164.58,-114.888C2164.58,-139.719 2169.27,-160.967 2178.63,-178.633C2188,-196.298 2200.78,-209.805 2216.99,-219.152C2233.2,-228.499 2251.49,-233.173 2271.87,-233.173C2292.32,-233.173 2310.6,-228.499 2326.72,-219.152C2342.85,-209.805 2355.58,-196.298 2364.94,-178.633C2374.3,-160.967 2378.97,-139.719 2378.97,-114.888C2378.97,-90.16 2374.3,-68.989 2364.94,-51.374C2355.58,-33.76 2342.85,-20.28 2326.72,-10.932C2310.6,-1.585 2292.32,3.088 2271.87,3.088ZM2271.87,-34.221C2284.55,-34.221 2295.75,-37.314 2305.47,-43.5C2315.19,-49.687 2322.8,-58.782 2328.3,-70.785C2333.81,-82.789 2336.56,-97.49 2336.56,-114.888C2336.56,-132.389 2333.81,-147.166 2328.3,-159.222C2322.8,-171.277 2315.19,-180.398 2305.47,-186.584C2295.75,-192.77 2284.55,-195.864 2271.87,-195.864C2259.24,-195.864 2248.04,-192.77 2238.29,-186.584C2228.54,-180.398 2220.89,-171.277 2215.33,-159.222C2209.78,-147.166 2207,-132.389 2207,-114.888C2207,-97.49 2209.78,-82.789 2215.33,-70.785C2220.89,-58.782 2228.54,-49.687 2238.29,-43.5C2248.04,-37.314 2259.24,-34.221 2271.87,-34.221Z" style="fill:rgb(97,97,97);fill-rule:nonzero;"/>
                <path d="M2610.71,-230.084L2652.94,-230.084L2652.94,-79.803C2652.94,-63.353 2649,-48.874 2641.14,-36.366C2633.28,-23.858 2622.25,-14.083 2608.05,-7.042C2593.85,-0 2577.25,3.52 2558.27,3.52C2539.29,3.52 2522.69,-0 2508.48,-7.042C2494.27,-14.083 2483.22,-23.858 2475.35,-36.366C2467.48,-48.874 2463.54,-63.353 2463.54,-79.803L2463.54,-230.084L2505.77,-230.084L2505.77,-83.2C2505.77,-73.586 2507.92,-65.053 2512.22,-57.599C2516.53,-50.146 2522.61,-44.294 2530.49,-40.042C2538.36,-35.789 2547.62,-33.663 2558.27,-33.663C2568.96,-33.663 2578.22,-35.789 2586.06,-40.042C2593.89,-44.294 2599.95,-50.146 2604.26,-57.599C2608.56,-65.053 2610.71,-73.586 2610.71,-83.2L2610.71,-230.084Z" style="fill:rgb(97,97,97);fill-rule:nonzero;"/>
                <path d="M2875.65,-230.084L2875.65,0L2837.87,0L2728.05,-156.704L2725.92,-156.704L2725.92,0L2683.69,0L2683.69,-230.084L2721.59,-230.084L2831.36,-73.32L2833.42,-73.32L2833.42,-230.084L2875.65,-230.084Z" style="fill:rgb(97,97,97);fill-rule:nonzero;"/>
                <path d="M2932.28,-74.739C2925.18,-74.739 2919.2,-77.132 2914.35,-81.919C2909.49,-86.706 2907.07,-92.548 2907.07,-99.446C2907.07,-106.343 2909.49,-112.185 2914.35,-116.972C2919.2,-121.759 2925.18,-124.153 2932.28,-124.153C2939.38,-124.153 2945.36,-121.759 2950.22,-116.972C2955.07,-112.185 2957.5,-106.343 2957.5,-99.446C2957.5,-92.548 2955.07,-86.706 2950.22,-81.919C2945.36,-77.132 2939.38,-74.739 2932.28,-74.739Z" style="fill:rgb(97,97,97);fill-rule:nonzero;"/>
                <path d="M2988.91,0L2988.91,-230.084L3140.78,-230.084L3140.78,-195.123L3031.14,-195.123L3031.14,-133.418L3132.76,-133.418L3132.76,-98.951L3031.14,-98.951L3031.14,-34.961L3141.47,-34.961L3141.47,0L2988.91,0Z" style="fill:rgb(97,97,97);fill-rule:nonzero;"/>
            </g>
            <g transform="matrix(0.805679,-0.0595925,0,0.825238,-1.87036,1554.53)">
                <path d="M49.548,0L4.201,0L86.735,-230.499L138.829,-230.499L221.206,0L176.016,0L113.567,-183.162L111.684,-183.162L49.548,0ZM51.117,-90.343L174.29,-90.343L174.29,-56.929L51.117,-56.929L51.117,-90.343ZM98.974,-252.002L67.279,-297.638L106.976,-297.638L128.944,-252.002L98.974,-252.002Z" style="fill:rgb(97,97,97);fill-rule:nonzero;"/>
                <path d="M296.515,0L296.515,-230.499L338.819,-230.499L338.819,-35.025L441.938,-35.025L441.938,0L296.515,0Z" style="fill:rgb(97,97,97);fill-rule:nonzero;"/>
                <path d="M501.998,0L456.745,0L539.215,-230.499L591.373,-230.499L673.657,0L628.592,0L566.142,-183.222L564.259,-183.222L501.998,0ZM503.567,-90.406L626.77,-90.406L626.77,-56.866L503.567,-56.866L503.567,-90.406Z" style="fill:rgb(97,97,97);fill-rule:nonzero;"/>
                <path d="M749.027,0L749.027,-230.499L836.771,-230.499C854.701,-230.499 869.769,-227.411 881.976,-221.233C894.183,-215.056 903.436,-206.424 909.733,-195.337C916.031,-184.251 919.18,-171.364 919.18,-156.677C919.18,-141.971 916.015,-129.193 909.687,-118.344C903.358,-107.494 894.017,-99.135 881.663,-93.267C869.308,-87.399 854.114,-84.465 836.079,-84.465L773.757,-84.465L773.757,-118.931L830.369,-118.931C840.913,-118.931 849.543,-120.385 856.258,-123.294C862.973,-126.203 867.931,-130.457 871.132,-136.057C874.334,-141.656 875.934,-148.53 875.934,-156.677C875.934,-164.886 874.318,-171.888 871.086,-177.685C867.854,-183.481 862.88,-187.916 856.164,-190.989C849.448,-194.062 840.787,-195.598 830.18,-195.598L791.331,-195.598L791.331,0L749.027,0ZM880.391,0L823.652,-104.513L869.847,-104.513L927.778,0L880.391,0Z" style="fill:rgb(97,97,97);fill-rule:nonzero;"/>
                <path d="M943.084,0L943.084,-230.499L1095.29,-230.499L1095.29,-195.538L985.449,-195.538L985.449,-133.659L1087.13,-133.659L1087.13,-99.161L985.449,-99.161L985.449,-34.962L1095.91,-34.962L1095.91,0L943.084,0ZM1003.02,-252.002L1024.83,-297.638L1064.69,-297.638L1032.99,-252.002L1003.02,-252.002Z" style="fill:rgb(97,97,97);fill-rule:nonzero;"/>
                <path d="M1123.14,0L1123.14,-230.499L1273.09,-230.499L1273.09,-195.475L1165.45,-195.475L1165.45,-126.419L1262.67,-126.419L1262.67,-91.89L1165.45,-91.89L1165.45,0L1123.14,0Z" style="fill:rgb(97,97,97);fill-rule:nonzero;"/>
                <path d="M1397.88,3.094C1377.46,3.094 1359.14,-1.599 1342.9,-10.984C1326.67,-20.369 1313.86,-33.884 1304.48,-51.53C1295.09,-69.176 1290.4,-90.364 1290.4,-115.095C1290.4,-139.971 1295.09,-161.257 1304.48,-178.955C1313.86,-196.653 1326.67,-210.183 1342.9,-219.547C1359.14,-228.911 1377.46,-233.593 1397.88,-233.593C1418.37,-233.593 1436.68,-228.911 1452.84,-219.547C1468.99,-210.183 1481.75,-196.653 1491.12,-178.955C1500.49,-161.257 1505.18,-139.971 1505.18,-115.095C1505.18,-90.322 1500.49,-69.113 1491.12,-51.467C1481.75,-33.821 1468.99,-20.316 1452.84,-10.952C1436.68,-1.588 1418.37,3.094 1397.88,3.094ZM1397.88,-34.282C1410.58,-34.282 1421.8,-37.381 1431.54,-43.579C1441.28,-49.776 1448.91,-58.888 1454.42,-70.913C1459.93,-82.938 1462.69,-97.666 1462.69,-115.095C1462.69,-132.627 1459.93,-147.432 1454.42,-159.509C1448.91,-171.586 1441.28,-180.723 1431.54,-186.921C1421.8,-193.118 1410.58,-196.217 1397.88,-196.217C1385.23,-196.217 1374.01,-193.118 1364.24,-186.921C1354.47,-180.723 1346.81,-171.586 1341.24,-159.509C1335.68,-147.432 1332.89,-132.627 1332.89,-115.095C1332.89,-97.666 1335.68,-82.938 1341.24,-70.913C1346.81,-58.888 1354.47,-49.776 1364.24,-43.579C1374.01,-37.381 1385.23,-34.282 1397.88,-34.282Z" style="fill:rgb(97,97,97);fill-rule:nonzero;"/>
                <path d="M1530.15,0L1530.15,-230.499L1617.89,-230.499C1635.83,-230.499 1650.89,-227.411 1663.1,-221.233C1675.31,-215.056 1684.56,-206.424 1690.86,-195.337C1697.15,-184.251 1700.3,-171.364 1700.3,-156.677C1700.3,-141.971 1697.14,-129.193 1690.81,-118.344C1684.48,-107.494 1675.14,-99.135 1662.79,-93.267C1650.43,-87.399 1635.24,-84.465 1617.2,-84.465L1554.88,-84.465L1554.88,-118.931L1611.49,-118.931C1622.04,-118.931 1630.67,-120.385 1637.38,-123.294C1644.1,-126.203 1649.06,-130.457 1652.26,-136.057C1655.46,-141.656 1657.06,-148.53 1657.06,-156.677C1657.06,-164.886 1655.44,-171.888 1652.21,-177.685C1648.98,-183.481 1644,-187.916 1637.29,-190.989C1630.57,-194.062 1621.91,-195.598 1611.31,-195.598L1572.45,-195.598L1572.45,0L1530.15,0ZM1661.52,0L1604.78,-104.513L1650.97,-104.513L1708.9,0L1661.52,0Z" style="fill:rgb(97,97,97);fill-rule:nonzero;"/>
                <path d="M1724.21,-230.499L1776.18,-230.499L1845.53,-63.552L1848.23,-63.552L1917.71,-230.499L1970.21,-230.499L1970.21,0L1928.69,0L1928.69,-158.41L1926.75,-158.41L1861.76,-0.742L1831.44,-0.742L1767.14,-158.657L1765.07,-158.657L1765.07,0L1724.21,0L1724.21,-230.499Z" style="fill:rgb(97,97,97);fill-rule:nonzero;"/>
                <path d="M2001.02,0L2001.02,-230.499L2153.16,-230.499L2153.16,-195.475L2043.32,-195.475L2043.32,-133.659L2145.13,-133.659L2145.13,-99.13L2043.32,-99.13L2043.32,-35.025L2153.85,-35.025L2153.85,0L2001.02,0Z" style="fill:rgb(97,97,97);fill-rule:nonzero;"/>
                <path d="M2240.83,0L2240.83,-230.499L2393.03,-230.499L2393.03,-195.538L2283.2,-195.538L2283.2,-133.659L2384.87,-133.659L2384.87,-99.161L2283.2,-99.161L2283.2,-34.962L2393.66,-34.962L2393.66,0L2240.83,0ZM2300.77,-252.002L2322.58,-297.638L2362.43,-297.638L2330.74,-252.002L2300.77,-252.002Z" style="fill:rgb(97,97,97);fill-rule:nonzero;"/>
                <path d="M2420.89,0L2420.89,-230.499L2463.2,-230.499L2463.2,-35.025L2566.32,-35.025L2566.32,0L2420.89,0Z" style="fill:rgb(97,97,97);fill-rule:nonzero;"/>
                <path d="M2587.65,0L2587.65,-230.499L2739.79,-230.499L2739.79,-195.475L2629.95,-195.475L2629.95,-133.659L2731.75,-133.659L2731.75,-99.13L2629.95,-99.13L2629.95,-35.025L2740.48,-35.025L2740.48,0L2587.65,0Z" style="fill:rgb(97,97,97);fill-rule:nonzero;"/>
                <path d="M2868.88,3.094C2848.42,3.094 2830.12,-1.599 2813.97,-10.984C2797.81,-20.369 2785.09,-33.884 2775.8,-51.53C2766.51,-69.176 2761.87,-90.364 2761.87,-115.095C2761.87,-139.971 2766.55,-161.257 2775.9,-178.955C2785.25,-196.653 2798.01,-210.183 2814.18,-219.547C2830.36,-228.911 2848.59,-233.593 2868.88,-233.593C2881.81,-233.593 2893.89,-231.778 2905.11,-228.148C2916.34,-224.517 2926.33,-219.232 2935.1,-212.291C2943.87,-205.351 2951.06,-196.863 2956.67,-186.828C2962.29,-176.792 2965.98,-165.381 2967.74,-152.592L2925.06,-152.592C2923.88,-159.523 2921.67,-165.68 2918.42,-171.064C2915.17,-176.448 2911.09,-181.012 2906.18,-184.755C2901.27,-188.498 2895.73,-191.344 2889.56,-193.293C2883.39,-195.243 2876.75,-196.217 2869.64,-196.217C2856.94,-196.217 2845.66,-193.077 2835.81,-186.796C2825.95,-180.516 2818.25,-171.337 2812.69,-159.261C2807.14,-147.185 2804.36,-132.463 2804.36,-115.095C2804.36,-97.542 2807.16,-82.753 2812.76,-70.728C2818.35,-58.704 2826.06,-49.623 2835.87,-43.487C2845.68,-37.351 2856.89,-34.282 2869.51,-34.282C2876.5,-34.282 2883.05,-35.205 2889.16,-37.051C2895.26,-38.897 2900.78,-41.63 2905.71,-45.25C2910.64,-48.87 2914.77,-53.289 2918.1,-58.507C2921.44,-63.725 2923.76,-69.737 2925.06,-76.544L2967.74,-76.544C2966.19,-65.509 2962.78,-55.175 2957.52,-45.543C2952.26,-35.91 2945.35,-27.459 2936.79,-20.188C2928.24,-12.917 2918.25,-7.219 2906.84,-3.094C2895.43,1.031 2882.78,3.094 2868.88,3.094Z" style="fill:rgb(97,97,97);fill-rule:nonzero;"/>
                <path d="M2981.41,-195.475L2981.41,-230.499L3167.88,-230.499L3167.88,-195.475L3095.7,-195.475L3095.7,0L3053.78,0L3053.78,-195.475L2981.41,-195.475Z" style="fill:rgb(97,97,97);fill-rule:nonzero;"/>
                <path d="M3280.2,3.094C3259.78,3.094 3241.46,-1.599 3225.22,-10.984C3208.99,-20.369 3196.18,-33.884 3186.8,-51.53C3177.41,-69.176 3172.72,-90.364 3172.72,-115.095C3172.72,-139.971 3177.41,-161.257 3186.8,-178.955C3196.18,-196.653 3208.99,-210.183 3225.22,-219.547C3241.46,-228.911 3259.78,-233.593 3280.2,-233.593C3300.69,-233.593 3319,-228.911 3335.16,-219.547C3351.31,-210.183 3364.07,-196.653 3373.44,-178.955C3382.81,-161.257 3387.5,-139.971 3387.5,-115.095C3387.5,-90.322 3382.81,-69.113 3373.44,-51.467C3364.07,-33.821 3351.31,-20.316 3335.16,-10.952C3319,-1.588 3300.69,3.094 3280.2,3.094ZM3280.2,-34.282C3292.9,-34.282 3304.12,-37.381 3313.86,-43.579C3323.6,-49.776 3331.23,-58.888 3336.74,-70.913C3342.25,-82.938 3345.01,-97.666 3345.01,-115.095C3345.01,-132.627 3342.25,-147.432 3336.74,-159.509C3331.23,-171.586 3323.6,-180.723 3313.86,-186.921C3304.12,-193.118 3292.9,-196.217 3280.2,-196.217C3267.55,-196.217 3256.33,-193.118 3246.56,-186.921C3236.79,-180.723 3229.13,-171.586 3223.56,-159.509C3218,-147.432 3215.21,-132.627 3215.21,-115.095C3215.21,-97.666 3218,-82.938 3223.56,-70.913C3229.13,-58.888 3236.79,-49.776 3246.56,-43.579C3256.33,-37.381 3267.55,-34.282 3280.2,-34.282Z" style="fill:rgb(97,97,97);fill-rule:nonzero;"/>
                <path d="M3412.47,0L3412.47,-230.499L3500.22,-230.499C3518.14,-230.499 3533.21,-227.411 3545.42,-221.233C3557.63,-215.056 3566.88,-206.424 3573.18,-195.337C3579.47,-184.251 3582.62,-171.364 3582.62,-156.677C3582.62,-141.971 3579.46,-129.193 3573.13,-118.344C3566.8,-107.494 3557.46,-99.135 3545.11,-93.267C3532.75,-87.399 3517.56,-84.465 3499.52,-84.465L3437.2,-84.465L3437.2,-118.931L3493.81,-118.931C3504.36,-118.931 3512.99,-120.385 3519.7,-123.294C3526.42,-126.203 3531.38,-130.457 3534.58,-136.057C3537.78,-141.656 3539.38,-148.53 3539.38,-156.677C3539.38,-164.886 3537.76,-171.888 3534.53,-177.685C3531.3,-183.481 3526.32,-187.916 3519.61,-190.989C3512.89,-194.062 3504.23,-195.598 3493.62,-195.598L3454.78,-195.598L3454.78,0L3412.47,0ZM3543.84,0L3487.1,-104.513L3533.29,-104.513L3591.22,0L3543.84,0Z" style="fill:rgb(97,97,97);fill-rule:nonzero;"/>
                <path d="M3636.59,0L3591.34,0L3673.81,-230.499L3725.97,-230.499L3808.25,0L3763.19,0L3700.74,-183.222L3698.86,-183.222L3636.59,0ZM3638.16,-90.406L3761.37,-90.406L3761.37,-56.866L3638.16,-56.866L3638.16,-90.406Z" style="fill:rgb(97,97,97);fill-rule:nonzero;"/>
                <path d="M3823.87,0L3823.87,-230.499L3866.18,-230.499L3866.18,-35.025L3969.29,-35.025L3969.29,0L3823.87,0Z" style="fill:rgb(97,97,97);fill-rule:nonzero;"/>
                <path d="M3990.63,0L3990.63,-230.499L4142.77,-230.499L4142.77,-195.475L4032.93,-195.475L4032.93,-133.659L4134.73,-133.659L4134.73,-99.13L4032.93,-99.13L4032.93,-35.025L4143.46,-35.025L4143.46,0L3990.63,0Z" style="fill:rgb(97,97,97);fill-rule:nonzero;"/>
                <path d="M4260.5,0L4215.25,0L4297.72,-230.499L4349.88,-230.499L4432.16,0L4387.1,0L4324.65,-183.222L4322.76,-183.222L4260.5,0ZM4262.07,-90.406L4385.28,-90.406L4385.28,-56.866L4262.07,-56.866L4262.07,-90.406Z" style="fill:rgb(97,97,97);fill-rule:nonzero;"/>
                <path d="M4595.21,-230.499L4637.52,-230.499L4637.52,-79.947C4637.52,-63.467 4633.58,-48.962 4625.7,-36.431C4617.82,-23.901 4606.77,-14.109 4592.54,-7.054C4578.32,-0 4561.7,3.527 4542.68,3.527C4523.66,3.527 4507.03,-0 4492.8,-7.054C4478.56,-14.109 4467.5,-23.901 4459.61,-36.431C4451.73,-48.962 4447.78,-63.467 4447.78,-79.947L4447.78,-230.499L4490.09,-230.499L4490.09,-83.351C4490.09,-73.719 4492.24,-65.17 4496.55,-57.703C4500.86,-50.237 4506.96,-44.374 4514.84,-40.114C4522.73,-35.854 4532.01,-33.724 4542.68,-33.724C4553.39,-33.724 4562.67,-35.854 4570.52,-40.114C4578.36,-44.374 4584.44,-50.237 4588.75,-57.703C4593.06,-65.17 4595.21,-73.719 4595.21,-83.351L4595.21,-230.499Z" style="fill:rgb(97,97,97);fill-rule:nonzero;"/>
                <path d="M4712.13,-230.499L4759.9,-230.499L4817.07,-128.399L4819.52,-128.399L4876.64,-230.499L4924.46,-230.499L4839.36,-85.949L4839.36,0L4797.18,0L4797.18,-85.949L4712.13,-230.499Z" style="fill:rgb(97,97,97);fill-rule:nonzero;"/>
                <path d="M5086.89,-230.499L5129.19,-230.499L5129.19,-79.947C5129.19,-63.467 5125.25,-48.962 5117.37,-36.431C5109.5,-23.901 5098.44,-14.109 5084.22,-7.054C5069.99,-0 5053.37,3.527 5034.35,3.527C5015.34,3.527 4998.71,-0 4984.47,-7.054C4970.23,-14.109 4959.17,-23.901 4951.29,-36.431C4943.4,-48.962 4939.45,-63.467 4939.45,-79.947L4939.45,-230.499L4981.76,-230.499L4981.76,-83.351C4981.76,-73.719 4983.91,-65.17 4988.22,-57.703C4992.53,-50.237 4998.63,-44.374 5006.52,-40.114C5014.4,-35.854 5023.68,-33.724 5034.35,-33.724C5045.07,-33.724 5054.35,-35.854 5062.19,-40.114C5070.03,-44.374 5076.11,-50.237 5080.42,-57.703C5084.73,-65.17 5086.89,-73.719 5086.89,-83.351L5086.89,-230.499Z" style="fill:rgb(97,97,97);fill-rule:nonzero;"/>
                <path d="M5160,0L5160,-230.499L5202.3,-230.499L5202.3,-124.563L5205.25,-124.563L5296.45,-230.499L5348.1,-230.499L5257.72,-127.038L5348.86,0L5297.95,0L5228.22,-98.758L5202.3,-68.5L5202.3,0L5160,0Z" style="fill:rgb(97,97,97);fill-rule:nonzero;"/>
                <path d="M5451.95,3.094C5431.53,3.094 5413.21,-1.599 5396.97,-10.984C5380.74,-20.369 5367.93,-33.884 5358.55,-51.53C5349.16,-69.176 5344.47,-90.364 5344.47,-115.095C5344.47,-139.971 5349.16,-161.257 5358.55,-178.955C5367.93,-196.653 5380.74,-210.183 5396.97,-219.547C5413.21,-228.911 5431.53,-233.593 5451.95,-233.593C5472.44,-233.593 5490.75,-228.911 5506.9,-219.547C5523.06,-210.183 5535.82,-196.653 5545.19,-178.955C5554.56,-161.257 5559.25,-139.971 5559.25,-115.095C5559.25,-90.322 5554.56,-69.113 5545.19,-51.467C5535.82,-33.821 5523.06,-20.316 5506.9,-10.952C5490.75,-1.588 5472.44,3.094 5451.95,3.094ZM5451.95,-34.282C5464.65,-34.282 5475.87,-37.381 5485.61,-43.579C5495.35,-49.776 5502.98,-58.888 5508.49,-70.913C5514,-82.938 5516.76,-97.666 5516.76,-115.095C5516.76,-132.627 5514,-147.432 5508.49,-159.509C5502.98,-171.586 5495.35,-180.723 5485.61,-186.921C5475.87,-193.118 5464.65,-196.217 5451.95,-196.217C5439.3,-196.217 5428.08,-193.118 5418.31,-186.921C5408.54,-180.723 5400.88,-171.586 5395.31,-159.509C5389.75,-147.432 5386.96,-132.627 5386.96,-115.095C5386.96,-97.666 5389.75,-82.938 5395.31,-70.913C5400.88,-58.888 5408.54,-49.776 5418.31,-43.579C5428.08,-37.381 5439.3,-34.282 5451.95,-34.282Z" style="fill:rgb(97,97,97);fill-rule:nonzero;"/>
                <path d="M5776.53,-230.499L5776.53,0L5738.68,0L5628.66,-156.987L5626.52,-156.987L5626.52,0L5584.22,0L5584.22,-230.499L5622.19,-230.499L5732.15,-73.452L5734.23,-73.452L5734.23,-230.499L5776.53,-230.499Z" style="fill:rgb(97,97,97);fill-rule:nonzero;"/>
            </g>
        </g>
    </g>
</svg>
